<svg xmlns="http://www.w3.org/2000/svg" viewBox="0 0 17496.13 17451.13" width="512" height="512">
  <rect width="17496.13" height="17451.13" fill="white"/>
  <defs>
    <style>.fil0{fill:#1F3864}.str0{stroke:#1F3864;stroke-width:7.25;stroke-miterlimit:22.9256}</style>
  </defs>
  <defs>
  <style type="text/css">
   <![CDATA[
    .str0 {stroke:black;stroke-width:7.25;stroke-miterlimit:22.9256}
    .fil0 {fill:black}
   ]]>
  </style>
 </defs>
 <g id="Plan_x0020_1">
  <metadata id="CorelCorpID_0Corel-Layer"/>
  <g id="_2126445546176">
   <path class="fil0 str0" d="M10440.68 15589.99l-75.2 37.45 -655.93 119.51 -5.62 -6119.31 2051.05 -1.31 1.47 5481.83c-176.58,154.21 -1019.34,449.92 -1315.77,481.84zm5032.35 -4529.74l-29.79 53.69c-195.91,800.77 -1314.35,2497.81 -1845.15,2781.12l-7.61 -10322.9c134.73,49.06 86.87,15.86 185.69,148.9l50.19 35.66c156.95,157.56 294.51,328.18 435.69,516.99l46.53 34.98c149.09,212.55 292.28,399.01 453.99,643.31 429.08,648.23 770.86,1501.98 942.13,2297.15 345.97,1606.25 126.11,2388.73 -231.66,3811.09zm-8864.56 -10792.18l-73.9 38.04 -416.97 97.07 -55.34 46.27 -465.29 156.57c114.81,487.38 434.24,1018.33 525.98,1507.68 474.48,-84.51 944.55,-338.68 1689.74,-404.98 -42.06,2324.03 12.53,4685.67 4.53,7015.88 -2.98,867.2 51.52,6358.91 -10.19,7026.7l-763.84 -132.55 -0.22 1663.25 384.84 68.75 118.39 35.72c696.08,15.1 1259.83,107.21 1990.84,31.59 1771.04,-183.24 3212.55,-748.1 4546.6,-1769.91 4644.03,-3557.06 4523.63,-10537.79 -232.15,-13994.96 -401.29,-291.72 -829.95,-551.03 -1313.67,-791.46 -309.17,-153.67 -1213.14,-534.53 -1577.79,-559.4l-3.06 1659.17c230.94,151.2 572.26,179.4 796.2,345.06l8.33 5485.04 -2056.08 -2.11 -3.17 -7721.54c-389.81,-90.04 -1191.6,-68.87 -1610.86,-36.38 -542.39,42.02 -1005.02,182.98 -1482.92,236.51z"/>
   <path class="fil0 str0" d="M1987.18 6562.26l28.87 -57.97c174.79,-661.68 829.34,-1835.44 1297,-2316.51 135.12,-139 417.19,-517.97 590.09,-600.14l19.76 10323.14c-170.98,-82.46 -522.69,-511.98 -645.3,-648.52 -514.6,-573.04 -1086.3,-1631.64 -1306.13,-2420.13 -327.83,-1175.82 -419.45,-2061.84 -221.23,-3284.22 59.4,-366.34 156.93,-658.12 236.95,-995.65zm-1421.07 -921.72l-28.9 58.14c-121.27,452.62 -344.64,961.05 -382.9,1464.05l-33.13 86.18c-15.75,340.33 -87.41,700.09 -105.94,1060.98 -119.89,2334.25 694.6,4391.55 2100.93,6108.5l46.78 34.88c127.56,132.48 219.69,261.67 351.4,401.14 145.09,153.65 255.95,219.27 404.06,355.68 587.34,540.9 2061.8,1571.35 2819.75,1693.08 0.33,-1622.18 2.5,-3243.99 4.04,-4866.02 0.69,-734.54 51.18,-4375.29 -19.46,-4784.37 112.7,75.95 537.57,851.28 607.21,1021.09l39.56 38.68c154.14,282.3 330.6,546.31 470.36,831.13 122.03,-81.24 409.2,-702.37 485.8,-839.31 289.39,-517.39 384.76,-581.85 267.08,-838.96 -135.48,-296.02 -256.58,-620.87 -379.45,-933.01 -113.2,-287.61 -274.57,-611.72 -365.15,-905.88l-32.13 -47.52c-123.66,-474.43 -1675.64,-4021.36 -1854.29,-4698.85 -366.95,91.74 -1181.32,684.13 -1453.24,880.02 -490.5,353.37 -821.21,699.64 -1196.87,1081.8 -586.16,596.29 -1523.33,1980.63 -1745.5,2798.58z"/>
  </g>
 </g>
</svg>